<?xml version="1.0" encoding="utf-8"?>
<!-- Generator: Adobe Illustrator 26.3.1, SVG Export Plug-In . SVG Version: 6.00 Build 0)  -->
<svg version="1.1" id="Layer_1" xmlns="http://www.w3.org/2000/svg" xmlns:xlink="http://www.w3.org/1999/xlink" x="0px" y="0px"
	 viewBox="0 0 755.6 949.2" style="enable-background:new 0 0 755.6 949.2;" xml:space="preserve">
<style type="text/css">
	.st0{fill:#FFFFFF;}
</style>
<path class="st0" d="M162.7,312.6c4,8.9,25.3,21.9,34.7,34.1c3.3,4,5.2,9,5.3,14.2c0,11.1-9,13-17.7,15.4c-14.5,4.3-30.1,6-38.4,4.7
	c-7.4-1.2-18.6-7.5-17.6-22.3c-9.2,4-14.2,16-12.3,26.7c3.2,17.6,21,18.2,35.9,17.6c15.9-0.6,34.7-4.1,47.7-9
	c20.8-8,28.9-25.4,27.3-39.1c-1.5-11.4-10.3-17.9-20.5-27.9c-6.4-6.5,0.9-10-3.4-14.2c-3.7-3.8-10.6-9-15.5-12.3
	c-3.7-2.7-8.6-5-13.3-4.7C170.7,296.1,160.4,307.5,162.7,312.6z"/>
<path class="st0" d="M580.1,200.3c59.4,54.8,96.7,133,96.7,219.9c0,164.8-134.4,299.2-299.1,299.2S78.7,585,78.7,420.2
	c0-86.8,37.2-165.1,96.7-219.9C79.7,265.4,16.8,375,16.8,498.9c0,198.8,162.1,360.9,360.9,360.9s361-162.1,361-360.9
	C738.7,375,675.6,265.3,580.1,200.3z M246.1,814.3c-6.1,0-11.1-5-11.1-11.1s5-11.1,11.1-11.1s11.1,5,11.1,11.1l0,0
	C257.2,809.3,252.2,814.2,246.1,814.3L246.1,814.3z M283.1,734.1l-9.5-0.3l-76.5,37.7l3,7.8l-6.2,8.3l-37.2-28.2l5.6-7.2l8.6-1.6
	l4.7-45L132,719.1l0.1,7.2l-7.1,5.6L94.2,695l6.2-6.9l7.7,2.7l21.1-58.9l-1.3-12.4l5.7-6.9L165,647l-5,6.3l-9.1,0.2l-13.3,36.3
	l54.9-17.3l16.8,11.2l-6.1,56l43.3-20.5l-1.2-6.2l4-6.9l38.2,18L283.1,734.1z M430.4,845l-2.4-8l4.1-5.2L410,805.7l-31.6,16.5
	l-29.5-17.9L329.6,828l3.5,3.8l-2.1,8.9l-41.8-10.2l2.8-10.2l9-0.2l60-71.3l-5.5-6.5l0.1-8.7l52.1,0.2l0.1,6.5l-4.6,5l65.6,77.1h7.5
	l2.7,10L430.4,845z M514.9,816c-6.1,0-11.1-5-11.1-11.1s5-11.1,11.1-11.1c6.1,0,11.1,5,11.1,11.1s-4.9,11-10.9,11.1
	C515,816,514.9,816,514.9,816z M673.3,683.3c-9.2,17.3-21.8,40-36,55.4c-18.3,19.6-48,35.4-76,31.6c-15.2-2.1-25.4-3.9-39.3-1
	c4.6-10.3,3.5-28.6,4.7-41.5c2.1-22,9.9-36.9,22.5-50.5c19-20.5,35.3-31.8,60.5-43l-2.3-7.7l4.7-6.2l26.5,20l-5.8,6.4
	c-14.3,3.8-40.2,18.3-51,28.2c-15.8,14.6-28.9,39.4-15.5,54.3c7.4,8.4,17.9,7.5,28.8,3.7c16.1-5.6,38.2-25,48.9-43.4
	c5.2-9.2,8-18.5,6.8-27l5.2-7.5l28.8,20.4l-4.7,7.2L673.3,683.3z"/>
<polygon class="st0" points="361.3,789.6 378.9,801.1 397.3,791.1 378.3,768.8 "/>
<path class="st0" d="M377.7,507.9c-3.2-8.1-8.7-16.2-13.1-20.5c-8-7.8-19-7.7-28.4-3.8c-20.2,8.3-40.8,24.7-56.9,39.1
	c-5.6-5.5-14.2-15.8-19.9-21.6c-9.6-10-15.6-8.7-22.7-3.4c-8.7,6.8-16,12.4-24.5,19.9c-6.5,5.8-13.9,14.2-15.6,22
	c-1.2,5.6,0.6,12,13.1,16.4c28.2,9.9,26.1,21,16.4,28.5c-6.4,5-32.5,3.1-49.2-4.6c-14-6.5-24.5-18.2-21.7-36.2
	c3.7-24.1,6.8-36,8-48.1c-12.4-0.9-19.6,0.3-25.4-3.5c-8-5.3-10.3-17.9-8.7-48c-1.2,8.3-5.9,16.7-10.3,25
	c-3.2,6.2-5.3,15.5-2.4,24.5c6.6,19.8,20.7,22,31.2,25.5c-1,15.7-6.2,34.1-4,50.9c1.8,13,11.1,27.8,26.1,33.7
	c23.5,9.5,53,16.4,67.8-0.3c9.6-10.9,13.1-20.1,12.9-27.8c-0.6-17-17.1-26-27.3-36.2c-6.4-6.5-3.4-15.2,6.1-21.6
	c8.6-5.9,14.5-5.5,22.3,0.6c5,4,11.1,11.5,17.6,20.7c-1.8,4.6-2.7,10.6-3.1,14.3c5.2-3.8,7.8-5.6,11.5-7.2
	c6.6,2.8,15.5,3.2,25.4,3.1c14-0.2,28-1.7,41.8-4.4C364.3,540.6,387,532.1,377.7,507.9z M292.2,528.7c9.6-10.2,49.6-43,61.6-30
	c8.6,9,9.7,13.9,7.4,18.5c-2.2,4.1-10.3,7.5-17.9,9.6C325.6,531.6,302.1,531.1,292.2,528.7L292.2,528.7z"/>
<path class="st0" d="M231.4,288.7l-9,9.3c1.3,4.6,6.2,10.3,12.7,11.5l9.3-10C239.3,297.6,233.4,292.3,231.4,288.7z"/>
<path class="st0" d="M243,467c0,14.2,7.7,5.8,19.5-3.8L259,332.3c0-10.8-10-3.7-19.8,2.8L243,467z"/>
<path class="st0" d="M217.1,425c-3.2-3.1-9.9-4-10.2-4c3.5,13.3-0.1,33.4-10.9,48C207.3,463.7,224,446.6,217.1,425z"/>
<path class="st0" d="M260.2,602.1c0.1,0.4,2.2,6.8,5.8,9.5c20.4-4.1,35.6-19.6,39.7-28.3C286.6,596.6,270.6,603.6,260.2,602.1z"/>
<path class="st0" d="M274.3,402c5.8,30.6,65.4,18.2,83.1,10.6c17.9-7.7,32-20.4,29.8-38.8c-1.3-11.4-5.8-19.3-12.9-26.7
	c-6.2-6.6,0.3-12.1-4-16.2c-4.9-5-18.6-18.9-25.5-16.7c-4,1.3-13.9,13.3-11.4,17c5,7.4,23,18.8,32.8,31c3.7,4.9,5.9,11.4,5.9,15.8
	c0,14.8-35,20.4-47,21.7c-11.8,1.5-24.7,0.9-32-5.8c-4.3-3.7-6.8-10.6-5.5-21.7C278.6,376.3,272.3,391.2,274.3,402z"/>
<path class="st0" d="M384.2,264.1c-16,7.2-49.9,16.1-50.4-7.1c-12.3,5.5-18.2,25.8-8.4,35.9c9,9.3,34.4,3.5,54.2-3.8
	c16.5-6.2,51.8-23.8,49.2-45.3c-1.3-11.4-8.6-15.5-20.2-25.8c-7.7-6.9-0.1-8.7-4.4-13s-14.5-10.6-20.5-10.2
	c-4.1,0.1-15.1,15.6-11.1,18.6c9.1,6.4,18.3,11.7,27.2,18.3C415.6,243.4,397.6,258,384.2,264.1z"/>
<path class="st0" d="M424.4,185.8c0.1-0.3,6.6-6.6,6-11.1c-12.4-18.3-32.6-15.1-41.8-9.1C404.3,165.6,416.4,175,424.4,185.8z"/>
<path class="st0" d="M271.5,296.7c-5.2-2.1-11.1-7.4-13.1-10.9l-9,9.3c1.9,5.9,6.8,10.4,12.9,11.7L271.5,296.7z"/>
<path class="st0" d="M489.8,270.9c1.7,5.5,6.2,9.6,11.9,10.8l8.7-9.3c-4.7-1.9-10.3-6.9-12.2-10.2L489.8,270.9z"/>
<path class="st0" d="M242.6,277.2c23.2-1.1,45-11.6,60.2-29.2c6.4-7.1,10.8-15.1,10.8-22.7c0-4.7-3.2-9.3-7.5-11.4
	c-7.8-3.8-19.6-4.6-21.6-9.6c-3.8-10,14.3-15.5,21-15.4c14.3,0.6,21.4,11.2,26.7,10.9c1.9-0.1,4.4-1,7.8-5.9
	c11.7-17.4-18.5-26.1-30.9-25.5c-17.7,0.7-28.8,7.8-37.8,16.8c-9.6,9.6-22.4,29.5-5.5,37.8c4.9,2.4,17.6,3,17.6,10.2
	c0,3.1-2.4,6.8-6,9.9c-5.6,4.4-21.7,8.9-35.9,8.9c-13.4,0.1-25.1-3.5-25-14.8c0.3-14.3,5-21,14.5-35.4
	c-16.1,7.2-40.5,28.4-32.9,51.2C203.2,268.1,221.8,278.6,242.6,277.2z"/>
<path class="st0" d="M482.7,338.6c23.2,3.7,55.8-5.9,67.3-30.3c4.6-9.8,4.6-22.6,5-29.2c1.2-18.8-19.9-2.1-20.2,1.3
	c-0.6,7.4,2.2,17.7-3.8,25.2c-6.8,8.6-21.8,9.8-34.3,9.5c-11.5-0.1-30-1.5-33.7-15.8c-2.1-7.8-0.3-18.3,0.5-30.6l4.3-83.2
	c0.9-10.8-10.3-5-20.7,0.7l-5.2,100.5C439.9,306.5,446.4,333,482.7,338.6z"/>
<path class="st0" d="M247.6,649.8c6.4,8.9,26.6,24.5,49.9,25.7c3.4-3.7,1-11.7,1-12.1C287,665.9,270.9,659.8,247.6,649.8z"/>
<path class="st0" d="M288.1,469c1.3,4.7,6.4,10.5,12.9,11.7l9.5-10c-5.2-1.9-11.2-7.4-13.3-10.9L288.1,469z"/>
<path class="st0" d="M608.8,428.1c-4.9-1.9-10.3-6.8-12.3-10.2l-8.4,8.7c1.2,4.3,5.9,9.7,12,10.8L608.8,428.1z"/>
<path class="st0" d="M463.5,584.9c-5-2.1-9.2-5.6-12.3-10l-8.4,8.6c1.2,4.3,5.9,9.7,12,10.8L463.5,584.9z"/>
<path class="st0" d="M488.6,581c-5-2.1-9.2-5.6-12.3-10l-8.4,8.6c1.2,4.3,5.8,9.7,12,10.8L488.6,581z"/>
<path class="st0" d="M492.6,251.1c9-9,23.5-14.9,42.5-20.7c-9.3-2.5-34.3-1.2-50.7,11.7C484.3,246.6,492.3,250.8,492.6,251.1z"/>
<path class="st0" d="M571.7,389.6c-12.7,14-39.6,15.8-60.1,16.1c0.3-3.8,0.1-7.5-0.7-11.2c-4.3-20.4-19.9-36-27.8-34.4
	c-14,3-28.8,22.1-34.8,35.6c-4.7,10.3,10.4,23.6,16.4,26.5c7.7,3.7,15.9,6.3,24.4,7.8c-13.6,22.4-40.7,32.4-67.5,34.2l2.2-153
	c1.9-18-14-2.7-24.1,5.9l1.4,146.9c-18.3-1.5-36-6.2-49.7-10.6c10.3,14.4,29.4,26.5,49.9,30l0.4,44c0.1,13.9,3.1,36.3,32.9,35.9
	c25.4-0.3,46.8-8.1,54.8-23.6c5-9.9,4.6-22.9-4-38.8c-4-7.7-13.7,2.7-12.1,6.3c2.4,6,2.8,10,2.1,15.7c-1.5,9.3-6.5,16.4-29.7,16.4
	c-25,0-24.8-8.7-25-26.4l0.4-28.8c32.4-3.3,66-26,81.7-52.1c29.5,2.7,62.9-3.5,79.1-22.6c8-9.3,14.8-32.3,13.4-56.7
	c11.2,16.4,21.4,36.5,25.5,55.7c5.3,24.2,1.6,50.2-17.6,67.5c-4.5,4-9.7,8.8-16.2,14.2c-3.4-11.2-7.4-22.3-11.7-33.4
	c-8.3-21.4-11.4-20.1-22.9-13.4c-5.9,3.5-12.1,8.9-19.9,15.5c-6.5,5.6-6.9,15.4-6.2,25.4c1,15.9,2.1,31.3,2.9,47.2
	c-13.4,8.8-18.7,13-13.3,13.7c5.6,0.7,9.8,1.2,14,0.8c0.1,3.3,0.2,6.5,0.3,9.9c0.4,17.6,4.4,39.7-17.6,44.5
	c-16.2,3.4-33.2,4.6-53.5,7.1c-15.8,2.1-29.8,11.7-40.5,20.7c-27.3,22.7-44.9,56.3-66.1,57c-14,0.6-28.6-12.7-28.6-43
	c-17.1,25.2-5.2,52,12.7,60.8c30,14.5,53.6-25.1,72.4-47.8c19.2-23.3,48.1-22,86.5-26.9c27.3-3.5,35.3-11.5,42.8-22.9
	c7.1-10.5,9.2-27.3,9.6-44.7c0.2-7.2,0-14.5-0.3-21.8c11.4-6.9,21.8-13.5,31.3-19.9c2.3,7.9,4.4,16,5.9,23.8
	c4.4,22.4,3.8,39.3-10.6,57.7c-17.9,22.6-49.5,37.4-82,51.4c33.7,6.3,77.8-15.8,96.9-46.8c8-12.8,10.2-28.8,9.9-45
	c-0.5-17-2.8-33.9-6.8-50.4c28.3-20.8,45.5-39.9,50.1-59.9C653,403.5,623,344,607.8,301.2c-7.6-21.5-13.1-35.4-20.1-33.5
	c-4.3,1.2-10.5,8.7-20.5,22.3c-3.5,4.7-2.7,10.8-0.3,16.1C574.4,321.8,586.8,373.1,571.7,389.6z M471,388.2c3-4.4,8.3-8.9,12.1-8.4
	c6.3,0.4,13.7,12.7,13.6,25.7C481.5,404.2,464.6,398.2,471,388.2L471,388.2z M547,519.9c-0.6-11.8-1.2-23.5-0.8-35.1
	c0.3-5.9,1.8-9.9,6.9-12.9c5.5-3.2,13.4,10.5,20.3,29.2C566.1,506.9,557.4,513.1,547,519.9z"/>
<g>
	<path class="st0" d="M343.7,918.2c-0.2-0.7-0.9-1.2-1.7-1.2h-17.4l-5.4-16.6c-0.2-0.7-0.9-1.2-1.7-1.2c-0.8,0-1.4,0.5-1.7,1.2
		l-5.4,16.6H293c-0.8,0-1.4,0.5-1.7,1.2c-0.2,0.7,0,1.5,0.6,2l14.1,10.2l-5.4,16.6c-0.2,0.7,0,1.5,0.6,2c0.6,0.4,1.4,0.4,2.1,0
		l14.1-10.2l14.1,10.2c0.3,0.2,0.7,0.3,1,0.3s0.7-0.1,1-0.3c0.6-0.4,0.9-1.2,0.6-2l-5.4-16.6l14.1-10.2
		C343.7,919.7,343.9,918.9,343.7,918.2z"/>
	<path class="st0" d="M404,918.2c-0.2-0.7-0.9-1.2-1.7-1.2h-17.4l-5.4-16.6c-0.2-0.7-0.9-1.2-1.7-1.2c-0.8,0-1.4,0.5-1.7,1.2
		l-5.4,16.6h-17.4c-0.8,0-1.4,0.5-1.7,1.2c-0.2,0.7,0,1.5,0.6,2l14.1,10.2l-5.4,16.6c-0.2,0.7,0,1.5,0.6,2c0.6,0.4,1.4,0.4,2.1,0
		l14.1-10.2l14.1,10.2c0.3,0.2,0.7,0.3,1,0.3s0.7-0.1,1-0.3c0.6-0.4,0.9-1.2,0.6-2l-5.4-16.6l14.1-10.2
		C404,919.7,404.2,918.9,404,918.2z"/>
	<path class="st0" d="M464.3,918.2c-0.2-0.7-0.9-1.2-1.7-1.2h-17.4l-5.4-16.6c-0.2-0.7-0.9-1.2-1.7-1.2c-0.8,0-1.4,0.5-1.7,1.2
		L431,917h-17.4c-0.8,0-1.4,0.5-1.7,1.2c-0.2,0.7,0,1.5,0.6,2l14.1,10.2l-5.4,16.6c-0.2,0.7,0,1.5,0.6,2c0.6,0.4,1.4,0.4,2.1,0
		l14.1-10.2l14.1,10.2c0.3,0.2,0.7,0.3,1,0.3s0.7-0.1,1-0.3c0.6-0.4,0.9-1.2,0.6-2l-5.4-16.6l14.1-10.2
		C464.3,919.7,464.5,918.9,464.3,918.2z"/>
</g>
<g>
	<path class="st0" d="M364.8,34.1c-0.4-1.3-1.6-2.2-3-2.2h-31.3l-9.7-29.8c-0.4-1.3-1.6-2.2-3-2.2s-2.6,0.9-3,2.2L305.1,32h-31.3
		c-1.4,0-2.6,0.9-3,2.2s0,2.7,1.1,3.5l25.4,18.4l-9.7,29.8c-0.4,1.3,0,2.7,1.1,3.5s2.6,0.8,3.7,0L317.8,71l25.4,18.4
		c0.5,0.4,1.2,0.6,1.8,0.6s1.3-0.2,1.8-0.6c1.1-0.8,1.6-2.2,1.1-3.5l-9.7-29.8l25.4-18.4C364.7,36.9,365.2,35.4,364.8,34.1z"/>
	<path class="st0" d="M484.8,34.1c-0.4-1.3-1.6-2.2-3-2.2h-31.3l-9.7-29.8c-0.4-1.3-1.6-2.2-3-2.2s-2.6,0.9-3,2.2L425.1,32h-31.3
		c-1.4,0-2.6,0.9-3,2.2s0,2.7,1.1,3.5l25.4,18.4l-9.7,29.8c-0.4,1.3,0,2.7,1.1,3.5s2.6,0.8,3.7,0L437.8,71l25.4,18.4
		c0.5,0.4,1.2,0.6,1.8,0.6s1.3-0.2,1.8-0.6c1.1-0.8,1.6-2.2,1.1-3.5l-9.7-29.8l25.4-18.4C484.7,36.9,485.2,35.4,484.8,34.1z"/>
</g>
</svg>
